<mxfile host="app.diagrams.net" agent="Mozilla/5.0 (Windows NT 10.0; Win64; x64) AppleWebKit/537.36 (KHTML, like Gecko) Chrome/130.0.0.0 Safari/537.36 Edg/130.0.0.0" version="24.8.3">
  <diagram id="C5RBs43oDa-KdzZeNtuy" name="Page-1">
    <mxGraphModel dx="3143" dy="2425" grid="1" gridSize="10" guides="1" tooltips="1" connect="1" arrows="1" fold="1" page="1" pageScale="1" pageWidth="827" pageHeight="1169" math="0" shadow="0">
      <root>
        <mxCell id="WIyWlLk6GJQsqaUBKTNV-0" />
        <mxCell id="WIyWlLk6GJQsqaUBKTNV-1" parent="WIyWlLk6GJQsqaUBKTNV-0" />
        <mxCell id="Ts1Kzrsn6X3nxz6rrArr-8" value="&lt;div style=&quot;box-sizing: border-box; width: 100%; background-image: initial; background-position: initial; background-size: initial; background-repeat: initial; background-attachment: initial; background-origin: initial; background-clip: initial; padding: 2px; font-size: 25px;&quot;&gt;&lt;span style=&quot;background-color: rgb(0, 153, 153);&quot;&gt;&lt;font style=&quot;font-size: 25px;&quot;&gt;CUSTOMER USER&lt;/font&gt;&lt;/span&gt;&lt;/div&gt;&lt;div style=&quot;box-sizing: border-box; width: 100%; background-image: initial; background-position: initial; background-size: initial; background-repeat: initial; background-attachment: initial; background-origin: initial; background-clip: initial; padding: 2px; font-size: 25px;&quot;&gt;&lt;span style=&quot;background-color: rgb(0, 153, 153);&quot;&gt;&lt;font style=&quot;font-size: 25px;&quot;&gt;&lt;br&gt;&lt;/font&gt;&lt;/span&gt;&lt;/div&gt;&lt;table style=&quot;width: 100%; font-size: 25px;&quot; cellpadding=&quot;2&quot; cellspacing=&quot;0&quot;&gt;&lt;tbody&gt;&lt;tr&gt;&lt;td&gt;&lt;span style=&quot;background-color: rgb(255, 0, 0);&quot;&gt;&lt;font style=&quot;font-size: 25px;&quot;&gt;PK&lt;/font&gt;&lt;/span&gt;&lt;/td&gt;&lt;td&gt;&lt;span style=&quot;background-color: rgb(255, 0, 0);&quot;&gt;&lt;font style=&quot;font-size: 25px;&quot;&gt;&lt;u&gt;Customer_ID&lt;/u&gt;&lt;br&gt;&lt;/font&gt;&lt;/span&gt;&lt;/td&gt;&lt;/tr&gt;&lt;tr&gt;&lt;td&gt;&lt;font style=&quot;font-size: 25px;&quot;&gt;&lt;br&gt;&lt;/font&gt;&lt;/td&gt;&lt;td&gt;&lt;font style=&quot;font-size: 25px;&quot;&gt;Username&lt;/font&gt;&lt;/td&gt;&lt;/tr&gt;&lt;tr&gt;&lt;td&gt;&lt;font style=&quot;font-size: 25px;&quot;&gt;&lt;br&gt;&lt;/font&gt;&lt;/td&gt;&lt;td&gt;&lt;font style=&quot;font-size: 25px;&quot;&gt;password&lt;br&gt;email&lt;br&gt;phone number&lt;br&gt;D.O.B&lt;br&gt;Name&lt;br&gt;Address&lt;br&gt;&lt;br&gt;&lt;/font&gt;&lt;/td&gt;&lt;/tr&gt;&lt;/tbody&gt;&lt;/table&gt;" style="verticalAlign=top;align=left;overflow=fill;html=1;whiteSpace=wrap;strokeWidth=7;" vertex="1" parent="WIyWlLk6GJQsqaUBKTNV-1">
          <mxGeometry x="-220" y="-360" width="340" height="360" as="geometry" />
        </mxCell>
        <mxCell id="Ts1Kzrsn6X3nxz6rrArr-11" value="&lt;div style=&quot;box-sizing: border-box; width: 100%; background-image: initial; background-position: initial; background-size: initial; background-repeat: initial; background-attachment: initial; background-origin: initial; background-clip: initial; padding: 2px; font-size: 25px;&quot;&gt;&lt;font style=&quot;font-size: 25px; background-color: rgb(0, 153, 153);&quot;&gt;ADMIN&lt;/font&gt;&lt;/div&gt;&lt;div style=&quot;box-sizing: border-box; width: 100%; background-image: initial; background-position: initial; background-size: initial; background-repeat: initial; background-attachment: initial; background-origin: initial; background-clip: initial; padding: 2px; font-size: 25px;&quot;&gt;&lt;font style=&quot;font-size: 25px; background-color: rgb(0, 153, 153);&quot;&gt;&lt;br&gt;&lt;/font&gt;&lt;/div&gt;&lt;table style=&quot;width: 100%; font-size: 25px;&quot; cellpadding=&quot;2&quot; cellspacing=&quot;0&quot;&gt;&lt;tbody&gt;&lt;tr&gt;&lt;td&gt;&lt;font style=&quot;background-color: rgb(255, 0, 0); font-size: 25px;&quot;&gt;PK&lt;/font&gt;&lt;/td&gt;&lt;td&gt;&lt;font style=&quot;background-color: rgb(255, 0, 0); font-size: 25px;&quot;&gt;&lt;u&gt;Admin_ID&lt;/u&gt;&lt;/font&gt;&lt;/td&gt;&lt;/tr&gt;&lt;tr&gt;&lt;td&gt;&lt;font style=&quot;font-size: 25px;&quot;&gt;&lt;br&gt;&lt;/font&gt;&lt;/td&gt;&lt;td&gt;&lt;font style=&quot;font-size: 25px;&quot;&gt;Phone Number&lt;/font&gt;&lt;/td&gt;&lt;/tr&gt;&lt;tr&gt;&lt;td&gt;&lt;/td&gt;&lt;td&gt;&lt;font style=&quot;font-size: 25px;&quot;&gt;&lt;br&gt;&lt;/font&gt;&lt;/td&gt;&lt;/tr&gt;&lt;/tbody&gt;&lt;/table&gt;" style="verticalAlign=top;align=left;overflow=fill;html=1;whiteSpace=wrap;strokeWidth=7;" vertex="1" parent="WIyWlLk6GJQsqaUBKTNV-1">
          <mxGeometry x="-230" y="60" width="290" height="190" as="geometry" />
        </mxCell>
        <mxCell id="Ts1Kzrsn6X3nxz6rrArr-13" value="&lt;div style=&quot;box-sizing: border-box; width: 100%; background-image: initial; background-position: initial; background-size: initial; background-repeat: initial; background-attachment: initial; background-origin: initial; background-clip: initial; padding: 2px; font-size: 25px;&quot;&gt;&lt;span style=&quot;background-color: rgb(0, 153, 153);&quot;&gt;ADMIN PROFILE&lt;/span&gt;&lt;table style=&quot;background-color: initial; width: 100%;&quot; cellpadding=&quot;2&quot; cellspacing=&quot;0&quot;&gt;&lt;tbody&gt;&lt;tr&gt;&lt;td&gt;&lt;br&gt;&lt;/td&gt;&lt;td&gt;&lt;br&gt;&lt;/td&gt;&lt;/tr&gt;&lt;tr&gt;&lt;td&gt;&lt;span style=&quot;background-color: rgb(178, 102, 255);&quot;&gt;FK1&lt;/span&gt;&lt;/td&gt;&lt;td&gt;&lt;span style=&quot;background-color: rgb(178, 102, 255);&quot;&gt;Admin_ID&lt;/span&gt;&lt;/td&gt;&lt;/tr&gt;&lt;tr&gt;&lt;td&gt;&lt;/td&gt;&lt;td&gt;username&lt;br&gt;Password&lt;/td&gt;&lt;/tr&gt;&lt;/tbody&gt;&lt;/table&gt;&lt;/div&gt;" style="verticalAlign=top;align=left;overflow=fill;html=1;whiteSpace=wrap;strokeWidth=7;" vertex="1" parent="WIyWlLk6GJQsqaUBKTNV-1">
          <mxGeometry x="-330" y="450" width="290" height="210" as="geometry" />
        </mxCell>
        <mxCell id="Ts1Kzrsn6X3nxz6rrArr-14" value="&lt;div style=&quot;box-sizing: border-box; width: 100%; background-image: initial; background-position: initial; background-size: initial; background-repeat: initial; background-attachment: initial; background-origin: initial; background-clip: initial; padding: 2px; font-size: 25px;&quot;&gt;&lt;span style=&quot;background-color: rgb(0, 153, 153);&quot;&gt;&lt;font style=&quot;font-size: 25px;&quot;&gt;INVOICE&lt;/font&gt;&lt;/span&gt;&lt;/div&gt;&lt;div style=&quot;box-sizing: border-box; width: 100%; background-image: initial; background-position: initial; background-size: initial; background-repeat: initial; background-attachment: initial; background-origin: initial; background-clip: initial; padding: 2px; font-size: 25px;&quot;&gt;&lt;span style=&quot;background-color: rgb(0, 153, 153);&quot;&gt;&lt;font style=&quot;font-size: 25px;&quot;&gt;&lt;br&gt;&lt;/font&gt;&lt;/span&gt;&lt;/div&gt;&lt;table style=&quot;width: 100%; font-size: 25px;&quot; cellpadding=&quot;2&quot; cellspacing=&quot;0&quot;&gt;&lt;tbody&gt;&lt;tr&gt;&lt;td&gt;&lt;font style=&quot;background-color: rgb(255, 0, 0); font-size: 25px;&quot;&gt;PK&lt;/font&gt;&lt;/td&gt;&lt;td&gt;&lt;font style=&quot;background-color: rgb(255, 0, 0); font-size: 25px;&quot;&gt;&lt;u&gt;Invoice_Id&lt;/u&gt;&lt;/font&gt;&lt;/td&gt;&lt;/tr&gt;&lt;tr&gt;&lt;td&gt;&lt;font style=&quot;background-color: rgb(178, 102, 255); font-size: 25px;&quot;&gt;FK1&lt;/font&gt;&lt;/td&gt;&lt;td&gt;&lt;font style=&quot;background-color: rgb(178, 102, 255); font-size: 25px;&quot;&gt;Cusotmer_ID&lt;/font&gt;&lt;/td&gt;&lt;/tr&gt;&lt;tr&gt;&lt;td&gt;&lt;/td&gt;&lt;td&gt;&lt;font style=&quot;font-size: 25px;&quot;&gt;amount&lt;br&gt;email&lt;br&gt;phone_number&lt;/font&gt;&lt;/td&gt;&lt;/tr&gt;&lt;/tbody&gt;&lt;/table&gt;" style="verticalAlign=top;align=left;overflow=fill;html=1;whiteSpace=wrap;strokeWidth=7;" vertex="1" parent="WIyWlLk6GJQsqaUBKTNV-1">
          <mxGeometry x="-230" y="750" width="340" height="250" as="geometry" />
        </mxCell>
        <mxCell id="Ts1Kzrsn6X3nxz6rrArr-16" value="&lt;div style=&quot;box-sizing: border-box; width: 100%; background-image: initial; background-position: initial; background-size: initial; background-repeat: initial; background-attachment: initial; background-origin: initial; background-clip: initial; padding: 2px; font-size: 25px;&quot;&gt;&lt;font style=&quot;background-color: rgb(0, 153, 153); font-size: 25px;&quot;&gt;PAYMENT&lt;/font&gt;&lt;/div&gt;&lt;table style=&quot;width: 100%; font-size: 25px;&quot; cellpadding=&quot;2&quot; cellspacing=&quot;0&quot;&gt;&lt;tbody&gt;&lt;tr&gt;&lt;td&gt;&lt;font style=&quot;background-color: rgb(255, 0, 0); font-size: 25px;&quot;&gt;PK&lt;/font&gt;&lt;/td&gt;&lt;td&gt;&lt;font style=&quot;background-color: rgb(255, 0, 0); font-size: 25px;&quot;&gt;&lt;u&gt;Payment_ID&lt;/u&gt;&lt;/font&gt;&lt;/td&gt;&lt;/tr&gt;&lt;tr&gt;&lt;td&gt;&lt;font style=&quot;background-color: rgb(178, 102, 255); font-size: 25px;&quot;&gt;FK1&lt;/font&gt;&lt;/td&gt;&lt;td&gt;&lt;font style=&quot;background-color: rgb(178, 102, 255); font-size: 25px;&quot;&gt;Customer_ID&lt;/font&gt;&lt;/td&gt;&lt;/tr&gt;&lt;tr&gt;&lt;td&gt;&lt;/td&gt;&lt;td&gt;&lt;font style=&quot;font-size: 25px;&quot;&gt;amount&lt;br&gt;payment&lt;/font&gt;&lt;/td&gt;&lt;/tr&gt;&lt;/tbody&gt;&lt;/table&gt;" style="verticalAlign=top;align=left;overflow=fill;html=1;whiteSpace=wrap;strokeWidth=7;" vertex="1" parent="WIyWlLk6GJQsqaUBKTNV-1">
          <mxGeometry x="290" y="-510" width="340" height="220" as="geometry" />
        </mxCell>
        <mxCell id="Ts1Kzrsn6X3nxz6rrArr-17" value="&lt;div style=&quot;box-sizing: border-box; width: 100%; background-image: initial; background-position: initial; background-size: initial; background-repeat: initial; background-attachment: initial; background-origin: initial; background-clip: initial; padding: 2px; font-size: 25px;&quot;&gt;&lt;font style=&quot;background-color: rgb(0, 153, 153); font-size: 25px;&quot;&gt;BOOKING&lt;/font&gt;&lt;/div&gt;&lt;div style=&quot;box-sizing: border-box; width: 100%; background-image: initial; background-position: initial; background-size: initial; background-repeat: initial; background-attachment: initial; background-origin: initial; background-clip: initial; padding: 2px; font-size: 25px;&quot;&gt;&lt;font style=&quot;background-color: rgb(0, 153, 153); font-size: 25px;&quot;&gt;&lt;br&gt;&lt;/font&gt;&lt;/div&gt;&lt;table style=&quot;width: 100%; font-size: 25px;&quot; cellpadding=&quot;2&quot; cellspacing=&quot;0&quot;&gt;&lt;tbody&gt;&lt;tr&gt;&lt;td&gt;&lt;font style=&quot;background-color: rgb(255, 0, 0); font-size: 25px;&quot;&gt;PK&lt;/font&gt;&lt;/td&gt;&lt;td&gt;&lt;font style=&quot;background-color: rgb(255, 0, 0); font-size: 25px;&quot;&gt;&lt;u&gt;Booking_ID&lt;/u&gt;&lt;/font&gt;&lt;/td&gt;&lt;/tr&gt;&lt;tr&gt;&lt;td&gt;&lt;font style=&quot;background-color: rgb(178, 102, 255); font-size: 25px;&quot;&gt;FK1&lt;/font&gt;&lt;/td&gt;&lt;td&gt;&lt;font style=&quot;background-color: rgb(178, 102, 255); font-size: 25px;&quot;&gt;Customer_ID&lt;/font&gt;&lt;/td&gt;&lt;/tr&gt;&lt;tr&gt;&lt;td&gt;&lt;/td&gt;&lt;td&gt;&lt;font style=&quot;font-size: 25px;&quot;&gt;cancel_date&lt;br&gt;Refund_amount&lt;/font&gt;&lt;/td&gt;&lt;/tr&gt;&lt;/tbody&gt;&lt;/table&gt;" style="verticalAlign=top;align=left;overflow=fill;html=1;whiteSpace=wrap;strokeWidth=7;" vertex="1" parent="WIyWlLk6GJQsqaUBKTNV-1">
          <mxGeometry x="275" y="-80" width="320" height="210" as="geometry" />
        </mxCell>
        <mxCell id="Ts1Kzrsn6X3nxz6rrArr-18" value="&lt;div style=&quot;box-sizing: border-box; width: 100%; background-image: initial; background-position: initial; background-size: initial; background-repeat: initial; background-attachment: initial; background-origin: initial; background-clip: initial; padding: 2px; font-size: 25px;&quot;&gt;&lt;font style=&quot;background-color: rgb(0, 153, 153); font-size: 25px;&quot;&gt;LOGIN&lt;/font&gt;&lt;/div&gt;&lt;div style=&quot;box-sizing: border-box; width: 100%; background-image: initial; background-position: initial; background-size: initial; background-repeat: initial; background-attachment: initial; background-origin: initial; background-clip: initial; padding: 2px; font-size: 25px;&quot;&gt;&lt;font style=&quot;background-color: rgb(0, 153, 153); font-size: 25px;&quot;&gt;&lt;br&gt;&lt;/font&gt;&lt;/div&gt;&lt;table style=&quot;width: 100%; font-size: 25px;&quot; cellpadding=&quot;2&quot; cellspacing=&quot;0&quot;&gt;&lt;tbody&gt;&lt;tr&gt;&lt;td&gt;&lt;font style=&quot;background-color: rgb(255, 0, 0); font-size: 25px;&quot;&gt;PK&lt;/font&gt;&lt;/td&gt;&lt;td&gt;&lt;font style=&quot;background-color: rgb(255, 0, 0); font-size: 25px;&quot;&gt;Log_ID&lt;/font&gt;&lt;/td&gt;&lt;/tr&gt;&lt;tr&gt;&lt;td&gt;&lt;font style=&quot;background-color: rgb(178, 102, 255); font-size: 25px;&quot;&gt;FK1&lt;/font&gt;&lt;/td&gt;&lt;td&gt;&lt;font style=&quot;background-color: rgb(178, 102, 255); font-size: 25px;&quot;&gt;Customer_ID&lt;/font&gt;&lt;/td&gt;&lt;/tr&gt;&lt;tr&gt;&lt;td&gt;&lt;/td&gt;&lt;td&gt;&lt;font style=&quot;font-size: 25px;&quot;&gt;Username&lt;br&gt;passoword&lt;/font&gt;&lt;/td&gt;&lt;/tr&gt;&lt;/tbody&gt;&lt;/table&gt;" style="verticalAlign=top;align=left;overflow=fill;html=1;whiteSpace=wrap;strokeWidth=7;" vertex="1" parent="WIyWlLk6GJQsqaUBKTNV-1">
          <mxGeometry x="220" y="365" width="310" height="220" as="geometry" />
        </mxCell>
        <mxCell id="Ts1Kzrsn6X3nxz6rrArr-19" value="&lt;div style=&quot;box-sizing: border-box; width: 100%; background-image: initial; background-position: initial; background-size: initial; background-repeat: initial; background-attachment: initial; background-origin: initial; background-clip: initial; padding: 2px; font-size: 25px;&quot;&gt;&lt;font style=&quot;background-color: rgb(0, 153, 153); font-size: 25px;&quot;&gt;ROOMS&lt;/font&gt;&lt;/div&gt;&lt;div style=&quot;box-sizing: border-box; width: 100%; background-image: initial; background-position: initial; background-size: initial; background-repeat: initial; background-attachment: initial; background-origin: initial; background-clip: initial; padding: 2px; font-size: 25px;&quot;&gt;&lt;font style=&quot;background-color: rgb(0, 153, 153); font-size: 25px;&quot;&gt;&lt;br&gt;&lt;/font&gt;&lt;/div&gt;&lt;table style=&quot;width: 100%; font-size: 25px;&quot; cellpadding=&quot;2&quot; cellspacing=&quot;0&quot;&gt;&lt;tbody&gt;&lt;tr&gt;&lt;td&gt;&lt;font style=&quot;background-color: rgb(255, 0, 0); font-size: 25px;&quot;&gt;PK&lt;/font&gt;&lt;/td&gt;&lt;td&gt;&lt;font style=&quot;background-color: rgb(255, 0, 0); font-size: 25px;&quot;&gt;&lt;u&gt;Room_ID&lt;/u&gt;&lt;/font&gt;&lt;/td&gt;&lt;/tr&gt;&lt;tr&gt;&lt;td&gt;&lt;/td&gt;&lt;td&gt;&lt;font style=&quot;font-size: 25px;&quot;&gt;Price&lt;/font&gt;&lt;/td&gt;&lt;/tr&gt;&lt;tr&gt;&lt;td&gt;&lt;/td&gt;&lt;td&gt;&lt;font style=&quot;font-size: 25px;&quot;&gt;Capacity&lt;br&gt;Availability&lt;br&gt;Room_Type&lt;/font&gt;&lt;/td&gt;&lt;/tr&gt;&lt;/tbody&gt;&lt;/table&gt;" style="verticalAlign=top;align=left;overflow=fill;html=1;whiteSpace=wrap;strokeWidth=7;" vertex="1" parent="WIyWlLk6GJQsqaUBKTNV-1">
          <mxGeometry x="300" y="820" width="270" height="260" as="geometry" />
        </mxCell>
        <mxCell id="Ts1Kzrsn6X3nxz6rrArr-20" value="&lt;div style=&quot;box-sizing: border-box; width: 100%; background-image: initial; background-position: initial; background-size: initial; background-repeat: initial; background-attachment: initial; background-origin: initial; background-clip: initial; padding: 2px; font-size: 25px;&quot;&gt;&lt;font style=&quot;background-color: rgb(0, 153, 153); font-size: 25px;&quot;&gt;SEVICES&lt;/font&gt;&lt;/div&gt;&lt;div style=&quot;box-sizing: border-box; width: 100%; background-image: initial; background-position: initial; background-size: initial; background-repeat: initial; background-attachment: initial; background-origin: initial; background-clip: initial; padding: 2px; font-size: 25px;&quot;&gt;&lt;font style=&quot;background-color: rgb(0, 153, 153); font-size: 25px;&quot;&gt;&lt;br&gt;&lt;/font&gt;&lt;/div&gt;&lt;table style=&quot;width: 100%; font-size: 25px;&quot; cellpadding=&quot;2&quot; cellspacing=&quot;0&quot;&gt;&lt;tbody&gt;&lt;tr&gt;&lt;td&gt;&lt;font style=&quot;background-color: rgb(255, 0, 0); font-size: 25px;&quot;&gt;PK&lt;/font&gt;&lt;/td&gt;&lt;td&gt;&lt;font style=&quot;background-color: rgb(255, 0, 0); font-size: 25px;&quot;&gt;&lt;u&gt;Service_ID&lt;/u&gt;&lt;/font&gt;&lt;/td&gt;&lt;/tr&gt;&lt;tr&gt;&lt;td&gt;&lt;font style=&quot;background-color: rgb(178, 102, 255); font-size: 25px;&quot;&gt;FK1&lt;/font&gt;&lt;/td&gt;&lt;td&gt;&lt;font style=&quot;font-size: 25px;&quot;&gt;&lt;span style=&quot;background-color: rgb(178, 102, 255);&quot;&gt;Room_ID&lt;/span&gt;&lt;br&gt;&lt;/font&gt;&lt;/td&gt;&lt;/tr&gt;&lt;tr&gt;&lt;td&gt;&lt;/td&gt;&lt;td&gt;&lt;font style=&quot;font-size: 25px;&quot;&gt;Wifi&lt;br&gt;Air_Conditioner&lt;br&gt;Water Heater&lt;br&gt;Balcony&lt;/font&gt;&lt;/td&gt;&lt;/tr&gt;&lt;/tbody&gt;&lt;/table&gt;" style="verticalAlign=top;align=left;overflow=fill;html=1;whiteSpace=wrap;strokeWidth=7;" vertex="1" parent="WIyWlLk6GJQsqaUBKTNV-1">
          <mxGeometry x="1241" y="-180" width="340" height="290" as="geometry" />
        </mxCell>
        <mxCell id="Ts1Kzrsn6X3nxz6rrArr-21" value="&lt;div style=&quot;box-sizing: border-box; width: 100%; background-image: initial; background-position: initial; background-size: initial; background-repeat: initial; background-attachment: initial; background-origin: initial; background-clip: initial; padding: 2px; font-size: 25px;&quot;&gt;&lt;font style=&quot;background-color: rgb(0, 153, 153); font-size: 25px;&quot;&gt;HOTEL&lt;/font&gt;&lt;/div&gt;&lt;div style=&quot;box-sizing: border-box; width: 100%; background-image: initial; background-position: initial; background-size: initial; background-repeat: initial; background-attachment: initial; background-origin: initial; background-clip: initial; padding: 2px; font-size: 25px;&quot;&gt;&lt;font style=&quot;background-color: rgb(0, 153, 153); font-size: 25px;&quot;&gt;&lt;br&gt;&lt;/font&gt;&lt;/div&gt;&lt;table style=&quot;width: 100%; font-size: 25px;&quot; cellpadding=&quot;2&quot; cellspacing=&quot;0&quot;&gt;&lt;tbody&gt;&lt;tr&gt;&lt;td&gt;&lt;font style=&quot;background-color: rgb(255, 0, 0); font-size: 25px;&quot;&gt;PK&lt;/font&gt;&lt;/td&gt;&lt;td&gt;&lt;font style=&quot;background-color: rgb(255, 0, 0); font-size: 25px;&quot;&gt;&lt;u&gt;Hotel_ID&lt;/u&gt;&lt;/font&gt;&lt;/td&gt;&lt;/tr&gt;&lt;tr&gt;&lt;td&gt;&lt;font style=&quot;font-size: 25px;&quot;&gt;&lt;br&gt;&lt;/font&gt;&lt;/td&gt;&lt;td&gt;&lt;font style=&quot;font-size: 25px;&quot;&gt;Hotel_Name&lt;/font&gt;&lt;/td&gt;&lt;/tr&gt;&lt;tr&gt;&lt;td&gt;&lt;/td&gt;&lt;td&gt;&lt;font style=&quot;font-size: 25px;&quot;&gt;Address&lt;br&gt;Email&lt;br&gt;Phone Number&lt;/font&gt;&lt;/td&gt;&lt;/tr&gt;&lt;/tbody&gt;&lt;/table&gt;" style="verticalAlign=top;align=left;overflow=fill;html=1;whiteSpace=wrap;strokeWidth=7;" vertex="1" parent="WIyWlLk6GJQsqaUBKTNV-1">
          <mxGeometry x="700" y="50" width="310" height="250" as="geometry" />
        </mxCell>
        <mxCell id="Ts1Kzrsn6X3nxz6rrArr-24" value="&lt;div style=&quot;box-sizing: border-box; width: 100%; background-image: initial; background-position: initial; background-size: initial; background-repeat: initial; background-attachment: initial; background-origin: initial; background-clip: initial; padding: 2px; font-size: 25px;&quot;&gt;&lt;font style=&quot;background-color: rgb(0, 153, 153); font-size: 25px;&quot;&gt;BOOKING_ROOMS&lt;/font&gt;&lt;/div&gt;&lt;div style=&quot;box-sizing: border-box; width: 100%; background-image: initial; background-position: initial; background-size: initial; background-repeat: initial; background-attachment: initial; background-origin: initial; background-clip: initial; padding: 2px; font-size: 25px;&quot;&gt;&lt;font style=&quot;background-color: rgb(0, 153, 153); font-size: 25px;&quot;&gt;&lt;br&gt;&lt;/font&gt;&lt;/div&gt;&lt;table style=&quot;width: 100%; font-size: 25px;&quot; cellpadding=&quot;2&quot; cellspacing=&quot;0&quot;&gt;&lt;tbody&gt;&lt;tr&gt;&lt;td&gt;&lt;font style=&quot;background-color: rgb(178, 102, 255); font-size: 25px;&quot;&gt;FK1&lt;/font&gt;&lt;/td&gt;&lt;td&gt;&lt;font style=&quot;background-color: rgb(178, 102, 255); font-size: 25px;&quot;&gt;Booking_ID&lt;/font&gt;&lt;/td&gt;&lt;/tr&gt;&lt;tr&gt;&lt;td&gt;&lt;font style=&quot;background-color: rgb(0, 102, 51); font-size: 25px;&quot;&gt;FK2&lt;/font&gt;&lt;/td&gt;&lt;td&gt;&lt;font style=&quot;background-color: rgb(0, 102, 51); font-size: 25px;&quot;&gt;Room_ID&lt;/font&gt;&lt;/td&gt;&lt;/tr&gt;&lt;tr&gt;&lt;td&gt;&lt;/td&gt;&lt;td&gt;&lt;font style=&quot;font-size: 25px;&quot;&gt;&lt;br&gt;&lt;/font&gt;&lt;/td&gt;&lt;/tr&gt;&lt;/tbody&gt;&lt;/table&gt;" style="verticalAlign=top;align=left;overflow=fill;html=1;whiteSpace=wrap;strokeWidth=7;" vertex="1" parent="WIyWlLk6GJQsqaUBKTNV-1">
          <mxGeometry x="730" y="-310" width="320" height="180" as="geometry" />
        </mxCell>
        <mxCell id="Ts1Kzrsn6X3nxz6rrArr-25" value="&lt;div style=&quot;box-sizing: border-box; width: 100%; background-image: initial; background-position: initial; background-size: initial; background-repeat: initial; background-attachment: initial; background-origin: initial; background-clip: initial; padding: 2px; font-size: 25px;&quot;&gt;&lt;font style=&quot;background-color: rgb(0, 153, 153); font-size: 25px;&quot;&gt;CUSTOMER_ROOM_BOOKING&lt;/font&gt;&lt;/div&gt;&lt;table style=&quot;width: 100%; font-size: 25px;&quot; cellpadding=&quot;2&quot; cellspacing=&quot;0&quot;&gt;&lt;tbody&gt;&lt;tr&gt;&lt;td&gt;&lt;font style=&quot;font-size: 25px;&quot;&gt;&lt;br&gt;&lt;/font&gt;&lt;/td&gt;&lt;td&gt;&lt;font style=&quot;font-size: 25px;&quot;&gt;&lt;br&gt;&lt;/font&gt;&lt;/td&gt;&lt;/tr&gt;&lt;tr&gt;&lt;td&gt;&lt;font style=&quot;background-color: rgb(178, 102, 255); font-size: 25px;&quot;&gt;FK1&lt;/font&gt;&lt;/td&gt;&lt;td&gt;&lt;font style=&quot;background-color: rgb(178, 102, 255); font-size: 25px;&quot;&gt;Customer_ID&lt;/font&gt;&lt;/td&gt;&lt;/tr&gt;&lt;tr&gt;&lt;td&gt;&lt;font style=&quot;background-color: rgb(0, 102, 51); font-size: 25px;&quot;&gt;FK2&lt;/font&gt;&lt;/td&gt;&lt;td&gt;&lt;font style=&quot;background-color: rgb(0, 102, 51); font-size: 25px;&quot;&gt;Room_ID&lt;/font&gt;&lt;/td&gt;&lt;/tr&gt;&lt;/tbody&gt;&lt;/table&gt;" style="verticalAlign=top;align=left;overflow=fill;html=1;whiteSpace=wrap;strokeWidth=7;" vertex="1" parent="WIyWlLk6GJQsqaUBKTNV-1">
          <mxGeometry x="1258" y="650" width="364" height="210" as="geometry" />
        </mxCell>
        <mxCell id="Ts1Kzrsn6X3nxz6rrArr-26" value="&lt;div style=&quot;box-sizing: border-box; width: 100%; background-image: initial; background-position: initial; background-size: initial; background-repeat: initial; background-attachment: initial; background-origin: initial; background-clip: initial; padding: 2px; font-size: 25px;&quot;&gt;&lt;font style=&quot;background-color: rgb(0, 153, 153); font-size: 25px;&quot;&gt;ROOM_HOTEL&lt;/font&gt;&lt;/div&gt;&lt;table style=&quot;width: 100%; font-size: 25px;&quot; cellpadding=&quot;2&quot; cellspacing=&quot;0&quot;&gt;&lt;tbody&gt;&lt;tr&gt;&lt;td&gt;&lt;font style=&quot;font-size: 25px;&quot;&gt;&lt;br&gt;&lt;/font&gt;&lt;/td&gt;&lt;td&gt;&lt;font style=&quot;font-size: 25px;&quot;&gt;&lt;br&gt;&lt;/font&gt;&lt;/td&gt;&lt;/tr&gt;&lt;tr&gt;&lt;td&gt;&lt;font style=&quot;background-color: rgb(178, 102, 255); font-size: 25px;&quot;&gt;FK1&lt;/font&gt;&lt;/td&gt;&lt;td&gt;&lt;font style=&quot;background-color: rgb(178, 102, 255); font-size: 25px;&quot;&gt;Room_ID&lt;/font&gt;&lt;/td&gt;&lt;/tr&gt;&lt;tr&gt;&lt;td&gt;&lt;font style=&quot;background-color: rgb(0, 102, 51); font-size: 25px;&quot;&gt;FK2&lt;/font&gt;&lt;/td&gt;&lt;td&gt;&lt;font style=&quot;background-color: rgb(0, 102, 51); font-size: 25px;&quot;&gt;Hotel_ID&lt;/font&gt;&lt;/td&gt;&lt;/tr&gt;&lt;/tbody&gt;&lt;/table&gt;" style="verticalAlign=top;align=left;overflow=fill;html=1;whiteSpace=wrap;strokeWidth=7;" vertex="1" parent="WIyWlLk6GJQsqaUBKTNV-1">
          <mxGeometry x="1270" y="280" width="340" height="180" as="geometry" />
        </mxCell>
        <mxCell id="Ts1Kzrsn6X3nxz6rrArr-27" value="&lt;div style=&quot;box-sizing: border-box; width: 100%; background-image: initial; background-position: initial; background-size: initial; background-repeat: initial; background-attachment: initial; background-origin: initial; background-clip: initial; padding: 2px; font-size: 25px;&quot;&gt;&lt;font style=&quot;background-color: rgb(0, 153, 153); font-size: 25px;&quot;&gt;DISCOUNT&lt;/font&gt;&lt;/div&gt;&lt;div style=&quot;box-sizing: border-box; width: 100%; background-image: initial; background-position: initial; background-size: initial; background-repeat: initial; background-attachment: initial; background-origin: initial; background-clip: initial; padding: 2px; font-size: 25px;&quot;&gt;&lt;font style=&quot;background-color: rgb(0, 153, 153); font-size: 25px;&quot;&gt;&lt;br&gt;&lt;/font&gt;&lt;/div&gt;&lt;table style=&quot;width: 100%; font-size: 25px;&quot; cellpadding=&quot;2&quot; cellspacing=&quot;0&quot;&gt;&lt;tbody&gt;&lt;tr&gt;&lt;td&gt;&lt;font style=&quot;background-color: rgb(255, 0, 0); font-size: 25px;&quot;&gt;PK&lt;/font&gt;&lt;/td&gt;&lt;td&gt;&lt;font style=&quot;background-color: rgb(255, 0, 0); font-size: 25px;&quot;&gt;&lt;u&gt;Discount_ID&lt;/u&gt;&lt;/font&gt;&lt;/td&gt;&lt;/tr&gt;&lt;tr&gt;&lt;td&gt;&lt;font style=&quot;background-color: rgb(178, 102, 255); font-size: 25px;&quot;&gt;FK1&lt;/font&gt;&lt;/td&gt;&lt;td&gt;&lt;font style=&quot;background-color: rgb(178, 102, 255); font-size: 25px;&quot;&gt;Customer_ID&lt;/font&gt;&lt;/td&gt;&lt;/tr&gt;&lt;tr&gt;&lt;td&gt;&lt;font style=&quot;background-color: rgb(0, 102, 51); font-size: 25px;&quot;&gt;FK2&lt;/font&gt;&lt;/td&gt;&lt;td&gt;&lt;font style=&quot;font-size: 25px;&quot;&gt;&lt;span style=&quot;background-color: rgb(0, 102, 51);&quot;&gt;Room_ID&lt;/span&gt;&lt;br&gt;&lt;/font&gt;&lt;/td&gt;&lt;/tr&gt;&lt;/tbody&gt;&lt;/table&gt;&lt;font style=&quot;font-size: 25px;&quot;&gt;&amp;nbsp; &amp;nbsp; &amp;nbsp; &amp;nbsp; &amp;nbsp; &amp;nbsp; &amp;nbsp; &amp;nbsp;Start_Date&lt;/font&gt;&lt;div style=&quot;font-size: 25px;&quot;&gt;&lt;font style=&quot;font-size: 25px;&quot;&gt;&amp;nbsp; &amp;nbsp; &amp;nbsp; &amp;nbsp; &amp;nbsp; &amp;nbsp; &amp;nbsp; &amp;nbsp;End_Date&lt;/font&gt;&lt;/div&gt;&lt;div style=&quot;font-size: 25px;&quot;&gt;&lt;font style=&quot;font-size: 25px;&quot;&gt;&amp;nbsp; &amp;nbsp; &amp;nbsp; &amp;nbsp; &amp;nbsp; &amp;nbsp; &amp;nbsp; &amp;nbsp; &amp;nbsp; &amp;nbsp; &amp;nbsp; &amp;nbsp; &amp;nbsp; &amp;nbsp;Discount_percentage&lt;/font&gt;&lt;/div&gt;" style="verticalAlign=top;align=left;overflow=fill;html=1;whiteSpace=wrap;strokeWidth=7;" vertex="1" parent="WIyWlLk6GJQsqaUBKTNV-1">
          <mxGeometry x="740" y="510" width="320" height="320" as="geometry" />
        </mxCell>
        <mxCell id="Ts1Kzrsn6X3nxz6rrArr-28" value="&lt;div style=&quot;box-sizing: border-box; width: 100%; background-image: initial; background-position: initial; background-size: initial; background-repeat: initial; background-attachment: initial; background-origin: initial; background-clip: initial; padding: 2px; font-size: 25px;&quot;&gt;&lt;font style=&quot;background-color: rgb(0, 153, 153); font-size: 25px;&quot;&gt;REVIEW&lt;/font&gt;&lt;/div&gt;&lt;div style=&quot;box-sizing: border-box; width: 100%; background-image: initial; background-position: initial; background-size: initial; background-repeat: initial; background-attachment: initial; background-origin: initial; background-clip: initial; padding: 2px; font-size: 25px;&quot;&gt;&lt;font style=&quot;background-color: rgb(0, 153, 153); font-size: 25px;&quot;&gt;&lt;br&gt;&lt;/font&gt;&lt;/div&gt;&lt;table style=&quot;width: 100%; font-size: 25px;&quot; cellpadding=&quot;2&quot; cellspacing=&quot;0&quot;&gt;&lt;tbody&gt;&lt;tr&gt;&lt;td&gt;&lt;font style=&quot;background-color: rgb(255, 0, 0); font-size: 25px;&quot;&gt;PK&lt;/font&gt;&lt;/td&gt;&lt;td&gt;&lt;font style=&quot;background-color: rgb(255, 0, 0); font-size: 25px;&quot;&gt;&lt;u&gt;Review_ID&lt;/u&gt;&lt;/font&gt;&lt;/td&gt;&lt;/tr&gt;&lt;tr&gt;&lt;td&gt;&lt;font style=&quot;background-color: rgb(178, 102, 255); font-size: 25px;&quot;&gt;FK1&lt;/font&gt;&lt;/td&gt;&lt;td&gt;&lt;font style=&quot;background-color: rgb(178, 102, 255); font-size: 25px;&quot;&gt;Customer_ID&lt;/font&gt;&lt;/td&gt;&lt;/tr&gt;&lt;tr&gt;&lt;td&gt;&lt;font style=&quot;background-color: rgb(0, 102, 51); font-size: 25px;&quot;&gt;FK2&lt;br&gt;&lt;/font&gt;&lt;/td&gt;&lt;td&gt;&lt;font style=&quot;font-size: 25px;&quot;&gt;&lt;span style=&quot;background-color: rgb(0, 102, 51);&quot;&gt;Room_ID&lt;/span&gt;&lt;br&gt;&lt;/font&gt;&lt;/td&gt;&lt;/tr&gt;&lt;/tbody&gt;&lt;/table&gt;&lt;font style=&quot;font-size: 25px;&quot;&gt;&amp;nbsp; &amp;nbsp; &amp;nbsp; &amp;nbsp; &amp;nbsp; &amp;nbsp; &amp;nbsp; &amp;nbsp;Rating&lt;/font&gt;&lt;div style=&quot;font-size: 25px;&quot;&gt;&lt;font style=&quot;font-size: 25px;&quot;&gt;&amp;nbsp; &amp;nbsp; &amp;nbsp; &amp;nbsp; &amp;nbsp; &amp;nbsp; &amp;nbsp; &amp;nbsp;Date&lt;/font&gt;&lt;/div&gt;&lt;div style=&quot;font-size: 25px;&quot;&gt;&lt;font style=&quot;font-size: 25px;&quot;&gt;&amp;nbsp; &amp;nbsp; &amp;nbsp; &amp;nbsp; &amp;nbsp; &amp;nbsp; &amp;nbsp; &amp;nbsp;Text&lt;/font&gt;&lt;/div&gt;" style="verticalAlign=top;align=left;overflow=fill;html=1;whiteSpace=wrap;strokeWidth=7;" vertex="1" parent="WIyWlLk6GJQsqaUBKTNV-1">
          <mxGeometry x="840" y="880" width="390" height="281" as="geometry" />
        </mxCell>
        <mxCell id="Ts1Kzrsn6X3nxz6rrArr-38" value="" style="endArrow=none;html=1;rounded=0;strokeWidth=5;" edge="1" parent="WIyWlLk6GJQsqaUBKTNV-1">
          <mxGeometry width="50" height="50" relative="1" as="geometry">
            <mxPoint x="-220" y="-280" as="sourcePoint" />
            <mxPoint x="-344" y="-280" as="targetPoint" />
            <Array as="points">
              <mxPoint x="-284" y="-280" />
            </Array>
          </mxGeometry>
        </mxCell>
        <mxCell id="Ts1Kzrsn6X3nxz6rrArr-39" value="" style="endArrow=none;html=1;rounded=0;strokeWidth=5;" edge="1" parent="WIyWlLk6GJQsqaUBKTNV-1">
          <mxGeometry width="50" height="50" relative="1" as="geometry">
            <mxPoint x="-340" y="-280" as="sourcePoint" />
            <mxPoint x="210" y="-620" as="targetPoint" />
            <Array as="points">
              <mxPoint x="-340" y="-620" />
            </Array>
          </mxGeometry>
        </mxCell>
        <mxCell id="Ts1Kzrsn6X3nxz6rrArr-40" value="" style="endArrow=none;html=1;rounded=0;strokeWidth=5;" edge="1" parent="WIyWlLk6GJQsqaUBKTNV-1">
          <mxGeometry width="50" height="50" relative="1" as="geometry">
            <mxPoint x="210" y="30" as="sourcePoint" />
            <mxPoint x="210" y="-620" as="targetPoint" />
          </mxGeometry>
        </mxCell>
        <mxCell id="Ts1Kzrsn6X3nxz6rrArr-41" value="" style="endArrow=classic;html=1;rounded=0;entryX=0.008;entryY=0.581;entryDx=0;entryDy=0;strokeWidth=5;entryPerimeter=0;" edge="1" parent="WIyWlLk6GJQsqaUBKTNV-1" target="Ts1Kzrsn6X3nxz6rrArr-17">
          <mxGeometry width="50" height="50" relative="1" as="geometry">
            <mxPoint x="210" y="30" as="sourcePoint" />
            <mxPoint x="220" as="targetPoint" />
            <Array as="points" />
          </mxGeometry>
        </mxCell>
        <mxCell id="Ts1Kzrsn6X3nxz6rrArr-44" value="" style="endArrow=none;html=1;rounded=0;strokeWidth=5;" edge="1" parent="WIyWlLk6GJQsqaUBKTNV-1">
          <mxGeometry width="50" height="50" relative="1" as="geometry">
            <mxPoint x="-340" y="400" as="sourcePoint" />
            <mxPoint x="-340" y="-280" as="targetPoint" />
            <Array as="points">
              <mxPoint x="-340" y="-140" />
            </Array>
          </mxGeometry>
        </mxCell>
        <mxCell id="Ts1Kzrsn6X3nxz6rrArr-45" value="" style="endArrow=none;html=1;rounded=0;strokeWidth=5;" edge="1" parent="WIyWlLk6GJQsqaUBKTNV-1">
          <mxGeometry width="50" height="50" relative="1" as="geometry">
            <mxPoint x="50" y="395" as="sourcePoint" />
            <mxPoint x="-340" y="395" as="targetPoint" />
            <Array as="points" />
          </mxGeometry>
        </mxCell>
        <mxCell id="Ts1Kzrsn6X3nxz6rrArr-46" value="" style="endArrow=none;html=1;rounded=0;strokeWidth=5;" edge="1" parent="WIyWlLk6GJQsqaUBKTNV-1">
          <mxGeometry width="50" height="50" relative="1" as="geometry">
            <mxPoint x="50" y="460" as="sourcePoint" />
            <mxPoint x="50" y="390" as="targetPoint" />
          </mxGeometry>
        </mxCell>
        <mxCell id="Ts1Kzrsn6X3nxz6rrArr-47" value="" style="endArrow=classic;html=1;rounded=0;strokeWidth=5;" edge="1" parent="WIyWlLk6GJQsqaUBKTNV-1">
          <mxGeometry width="50" height="50" relative="1" as="geometry">
            <mxPoint x="40" y="490" as="sourcePoint" />
            <mxPoint x="230" y="490" as="targetPoint" />
          </mxGeometry>
        </mxCell>
        <mxCell id="Ts1Kzrsn6X3nxz6rrArr-48" value="" style="endArrow=none;html=1;rounded=0;strokeWidth=5;" edge="1" parent="WIyWlLk6GJQsqaUBKTNV-1">
          <mxGeometry width="50" height="50" relative="1" as="geometry">
            <mxPoint x="-470" y="360" as="sourcePoint" />
            <mxPoint x="-340" y="360" as="targetPoint" />
            <Array as="points">
              <mxPoint x="-390" y="360" />
            </Array>
          </mxGeometry>
        </mxCell>
        <mxCell id="Ts1Kzrsn6X3nxz6rrArr-49" value="" style="endArrow=none;html=1;rounded=0;strokeWidth=5;" edge="1" parent="WIyWlLk6GJQsqaUBKTNV-1">
          <mxGeometry width="50" height="50" relative="1" as="geometry">
            <mxPoint x="-470" y="880" as="sourcePoint" />
            <mxPoint x="-470" y="360" as="targetPoint" />
          </mxGeometry>
        </mxCell>
        <mxCell id="Ts1Kzrsn6X3nxz6rrArr-50" value="" style="endArrow=classic;html=1;rounded=0;entryX=0;entryY=0.5;entryDx=0;entryDy=0;strokeWidth=5;" edge="1" parent="WIyWlLk6GJQsqaUBKTNV-1" target="Ts1Kzrsn6X3nxz6rrArr-14">
          <mxGeometry width="50" height="50" relative="1" as="geometry">
            <mxPoint x="-470" y="875" as="sourcePoint" />
            <mxPoint x="-370" y="760" as="targetPoint" />
          </mxGeometry>
        </mxCell>
        <mxCell id="Ts1Kzrsn6X3nxz6rrArr-51" value="" style="endArrow=none;html=1;rounded=0;strokeWidth=5;" edge="1" parent="WIyWlLk6GJQsqaUBKTNV-1">
          <mxGeometry width="50" height="50" relative="1" as="geometry">
            <mxPoint x="50" y="630" as="sourcePoint" />
            <mxPoint x="50" y="450" as="targetPoint" />
          </mxGeometry>
        </mxCell>
        <mxCell id="Ts1Kzrsn6X3nxz6rrArr-52" value="" style="endArrow=classic;html=1;rounded=0;entryX=0.01;entryY=0.382;entryDx=0;entryDy=0;entryPerimeter=0;strokeWidth=5;" edge="1" parent="WIyWlLk6GJQsqaUBKTNV-1" target="Ts1Kzrsn6X3nxz6rrArr-27">
          <mxGeometry width="50" height="50" relative="1" as="geometry">
            <mxPoint x="50" y="630" as="sourcePoint" />
            <mxPoint x="200" y="610" as="targetPoint" />
          </mxGeometry>
        </mxCell>
        <mxCell id="Ts1Kzrsn6X3nxz6rrArr-53" value="" style="endArrow=none;html=1;rounded=0;strokeWidth=5;" edge="1" parent="WIyWlLk6GJQsqaUBKTNV-1">
          <mxGeometry width="50" height="50" relative="1" as="geometry">
            <mxPoint x="630" y="1000" as="sourcePoint" />
            <mxPoint x="630" y="640" as="targetPoint" />
          </mxGeometry>
        </mxCell>
        <mxCell id="Ts1Kzrsn6X3nxz6rrArr-54" value="" style="endArrow=classic;html=1;rounded=0;entryX=0;entryY=0.427;entryDx=0;entryDy=0;entryPerimeter=0;strokeWidth=5;" edge="1" parent="WIyWlLk6GJQsqaUBKTNV-1" target="Ts1Kzrsn6X3nxz6rrArr-28">
          <mxGeometry width="50" height="50" relative="1" as="geometry">
            <mxPoint x="630" y="1000" as="sourcePoint" />
            <mxPoint x="750" y="880" as="targetPoint" />
          </mxGeometry>
        </mxCell>
        <mxCell id="Ts1Kzrsn6X3nxz6rrArr-55" value="" style="endArrow=none;html=1;rounded=0;strokeWidth=5;" edge="1" parent="WIyWlLk6GJQsqaUBKTNV-1">
          <mxGeometry width="50" height="50" relative="1" as="geometry">
            <mxPoint x="630" y="860" as="sourcePoint" />
            <mxPoint x="1120" y="860" as="targetPoint" />
          </mxGeometry>
        </mxCell>
        <mxCell id="Ts1Kzrsn6X3nxz6rrArr-56" value="" style="endArrow=none;html=1;rounded=0;strokeWidth=5;" edge="1" parent="WIyWlLk6GJQsqaUBKTNV-1">
          <mxGeometry width="50" height="50" relative="1" as="geometry">
            <mxPoint x="1120" y="860" as="sourcePoint" />
            <mxPoint x="1120" y="730" as="targetPoint" />
          </mxGeometry>
        </mxCell>
        <mxCell id="Ts1Kzrsn6X3nxz6rrArr-57" value="" style="endArrow=classic;html=1;rounded=0;strokeWidth=5;entryX=0.017;entryY=0.415;entryDx=0;entryDy=0;entryPerimeter=0;" edge="1" parent="WIyWlLk6GJQsqaUBKTNV-1" target="Ts1Kzrsn6X3nxz6rrArr-25">
          <mxGeometry width="50" height="50" relative="1" as="geometry">
            <mxPoint x="1120" y="737" as="sourcePoint" />
            <mxPoint x="1200" y="730" as="targetPoint" />
          </mxGeometry>
        </mxCell>
        <mxCell id="Ts1Kzrsn6X3nxz6rrArr-58" value="" style="endArrow=classic;html=1;rounded=0;entryX=0.015;entryY=0.409;entryDx=0;entryDy=0;entryPerimeter=0;strokeWidth=5;" edge="1" parent="WIyWlLk6GJQsqaUBKTNV-1" target="Ts1Kzrsn6X3nxz6rrArr-16">
          <mxGeometry width="50" height="50" relative="1" as="geometry">
            <mxPoint x="210" y="-420" as="sourcePoint" />
            <mxPoint x="300" y="-510" as="targetPoint" />
            <Array as="points" />
          </mxGeometry>
        </mxCell>
        <mxCell id="Ts1Kzrsn6X3nxz6rrArr-59" value="" style="endArrow=none;html=1;rounded=0;strokeWidth=5;" edge="1" parent="WIyWlLk6GJQsqaUBKTNV-1">
          <mxGeometry width="50" height="50" relative="1" as="geometry">
            <mxPoint x="-410" y="140" as="sourcePoint" />
            <mxPoint x="-230" y="140" as="targetPoint" />
          </mxGeometry>
        </mxCell>
        <mxCell id="Ts1Kzrsn6X3nxz6rrArr-60" value="" style="endArrow=none;html=1;rounded=0;strokeWidth=5;" edge="1" parent="WIyWlLk6GJQsqaUBKTNV-1">
          <mxGeometry width="50" height="50" relative="1" as="geometry">
            <mxPoint x="-410" y="520" as="sourcePoint" />
            <mxPoint x="-410" y="140" as="targetPoint" />
          </mxGeometry>
        </mxCell>
        <mxCell id="Ts1Kzrsn6X3nxz6rrArr-61" value="" style="endArrow=classic;html=1;rounded=0;entryX=0.034;entryY=0.333;entryDx=0;entryDy=0;entryPerimeter=0;strokeWidth=5;" edge="1" parent="WIyWlLk6GJQsqaUBKTNV-1" target="Ts1Kzrsn6X3nxz6rrArr-13">
          <mxGeometry width="50" height="50" relative="1" as="geometry">
            <mxPoint x="-410" y="520" as="sourcePoint" />
            <mxPoint x="-350" y="450" as="targetPoint" />
          </mxGeometry>
        </mxCell>
        <mxCell id="Ts1Kzrsn6X3nxz6rrArr-62" value="" style="endArrow=none;html=1;rounded=0;strokeWidth=5;entryX=0.008;entryY=0.378;entryDx=0;entryDy=0;entryPerimeter=0;" edge="1" parent="WIyWlLk6GJQsqaUBKTNV-1" target="Ts1Kzrsn6X3nxz6rrArr-17">
          <mxGeometry width="50" height="50" relative="1" as="geometry">
            <mxPoint x="150" y="-1" as="sourcePoint" />
            <mxPoint x="250" y="-20" as="targetPoint" />
          </mxGeometry>
        </mxCell>
        <mxCell id="Ts1Kzrsn6X3nxz6rrArr-63" value="" style="endArrow=none;html=1;rounded=0;strokeWidth=5;" edge="1" parent="WIyWlLk6GJQsqaUBKTNV-1">
          <mxGeometry width="50" height="50" relative="1" as="geometry">
            <mxPoint x="150" as="sourcePoint" />
            <mxPoint x="150" y="-230" as="targetPoint" />
          </mxGeometry>
        </mxCell>
        <mxCell id="Ts1Kzrsn6X3nxz6rrArr-65" value="" style="endArrow=classic;html=1;rounded=0;entryX=0;entryY=0.5;entryDx=0;entryDy=0;strokeWidth=5;" edge="1" parent="WIyWlLk6GJQsqaUBKTNV-1" target="Ts1Kzrsn6X3nxz6rrArr-24">
          <mxGeometry width="50" height="50" relative="1" as="geometry">
            <mxPoint x="150" y="-230" as="sourcePoint" />
            <mxPoint x="240" y="-350" as="targetPoint" />
          </mxGeometry>
        </mxCell>
        <mxCell id="Ts1Kzrsn6X3nxz6rrArr-66" value="" style="endArrow=none;html=1;rounded=0;strokeWidth=5;" edge="1" parent="WIyWlLk6GJQsqaUBKTNV-1">
          <mxGeometry width="50" height="50" relative="1" as="geometry">
            <mxPoint x="200" y="900" as="sourcePoint" />
            <mxPoint x="300" y="900" as="targetPoint" />
          </mxGeometry>
        </mxCell>
        <mxCell id="Ts1Kzrsn6X3nxz6rrArr-67" value="" style="endArrow=none;html=1;rounded=0;strokeWidth=5;" edge="1" parent="WIyWlLk6GJQsqaUBKTNV-1">
          <mxGeometry width="50" height="50" relative="1" as="geometry">
            <mxPoint x="200" y="900" as="sourcePoint" />
            <mxPoint x="200" y="650" as="targetPoint" />
          </mxGeometry>
        </mxCell>
        <mxCell id="Ts1Kzrsn6X3nxz6rrArr-68" value="" style="endArrow=classic;html=1;rounded=0;entryX=0;entryY=0.5;entryDx=0;entryDy=0;strokeWidth=5;" edge="1" parent="WIyWlLk6GJQsqaUBKTNV-1" target="Ts1Kzrsn6X3nxz6rrArr-27">
          <mxGeometry width="50" height="50" relative="1" as="geometry">
            <mxPoint x="200" y="670" as="sourcePoint" />
            <mxPoint x="300" y="520" as="targetPoint" />
          </mxGeometry>
        </mxCell>
        <mxCell id="Ts1Kzrsn6X3nxz6rrArr-69" value="" style="endArrow=none;html=1;rounded=0;strokeWidth=5;" edge="1" parent="WIyWlLk6GJQsqaUBKTNV-1">
          <mxGeometry width="50" height="50" relative="1" as="geometry">
            <mxPoint x="610" y="1050" as="sourcePoint" />
            <mxPoint x="610" y="670" as="targetPoint" />
          </mxGeometry>
        </mxCell>
        <mxCell id="Ts1Kzrsn6X3nxz6rrArr-70" value="" style="endArrow=classic;html=1;rounded=0;strokeWidth=5;" edge="1" parent="WIyWlLk6GJQsqaUBKTNV-1">
          <mxGeometry width="50" height="50" relative="1" as="geometry">
            <mxPoint x="610" y="1040" as="sourcePoint" />
            <mxPoint x="830" y="1040" as="targetPoint" />
          </mxGeometry>
        </mxCell>
        <mxCell id="Ts1Kzrsn6X3nxz6rrArr-71" value="" style="endArrow=none;html=1;rounded=0;" edge="1" parent="WIyWlLk6GJQsqaUBKTNV-1">
          <mxGeometry width="50" height="50" relative="1" as="geometry">
            <mxPoint x="610" y="840" as="sourcePoint" />
            <mxPoint x="1080" y="840" as="targetPoint" />
          </mxGeometry>
        </mxCell>
        <mxCell id="Ts1Kzrsn6X3nxz6rrArr-72" value="" style="endArrow=none;html=1;rounded=0;strokeWidth=5;" edge="1" parent="WIyWlLk6GJQsqaUBKTNV-1">
          <mxGeometry width="50" height="50" relative="1" as="geometry">
            <mxPoint x="1080" y="840" as="sourcePoint" />
            <mxPoint x="1080" y="750" as="targetPoint" />
          </mxGeometry>
        </mxCell>
        <mxCell id="Ts1Kzrsn6X3nxz6rrArr-73" value="" style="endArrow=classic;html=1;rounded=0;entryX=0;entryY=0.571;entryDx=0;entryDy=0;entryPerimeter=0;strokeWidth=5;" edge="1" parent="WIyWlLk6GJQsqaUBKTNV-1" target="Ts1Kzrsn6X3nxz6rrArr-25">
          <mxGeometry width="50" height="50" relative="1" as="geometry">
            <mxPoint x="1080" y="780" as="sourcePoint" />
            <mxPoint x="1170" y="670" as="targetPoint" />
          </mxGeometry>
        </mxCell>
        <mxCell id="Ts1Kzrsn6X3nxz6rrArr-74" value="" style="endArrow=none;html=1;rounded=0;strokeWidth=5;" edge="1" parent="WIyWlLk6GJQsqaUBKTNV-1">
          <mxGeometry width="50" height="50" relative="1" as="geometry">
            <mxPoint x="1080" y="750" as="sourcePoint" />
            <mxPoint x="1080" y="360" as="targetPoint" />
          </mxGeometry>
        </mxCell>
        <mxCell id="Ts1Kzrsn6X3nxz6rrArr-75" value="" style="endArrow=classic;html=1;rounded=0;strokeWidth=5;" edge="1" parent="WIyWlLk6GJQsqaUBKTNV-1">
          <mxGeometry width="50" height="50" relative="1" as="geometry">
            <mxPoint x="1080" y="360" as="sourcePoint" />
            <mxPoint x="1269" y="370" as="targetPoint" />
          </mxGeometry>
        </mxCell>
        <mxCell id="Ts1Kzrsn6X3nxz6rrArr-76" value="" style="endArrow=none;html=1;rounded=0;strokeWidth=5;" edge="1" parent="WIyWlLk6GJQsqaUBKTNV-1">
          <mxGeometry width="50" height="50" relative="1" as="geometry">
            <mxPoint x="640" y="135" as="sourcePoint" />
            <mxPoint x="700" y="135" as="targetPoint" />
          </mxGeometry>
        </mxCell>
        <mxCell id="Ts1Kzrsn6X3nxz6rrArr-77" value="" style="endArrow=none;html=1;rounded=0;strokeWidth=5;" edge="1" parent="WIyWlLk6GJQsqaUBKTNV-1">
          <mxGeometry width="50" height="50" relative="1" as="geometry">
            <mxPoint x="640" y="390" as="sourcePoint" />
            <mxPoint x="640" y="130" as="targetPoint" />
          </mxGeometry>
        </mxCell>
        <mxCell id="Ts1Kzrsn6X3nxz6rrArr-78" value="" style="endArrow=classic;html=1;rounded=0;strokeWidth=5;" edge="1" parent="WIyWlLk6GJQsqaUBKTNV-1">
          <mxGeometry width="50" height="50" relative="1" as="geometry">
            <mxPoint x="640" y="390" as="sourcePoint" />
            <mxPoint x="1269" y="400" as="targetPoint" />
          </mxGeometry>
        </mxCell>
        <mxCell id="Ts1Kzrsn6X3nxz6rrArr-81" value="" style="endArrow=none;html=1;rounded=0;strokeWidth=5;" edge="1" parent="WIyWlLk6GJQsqaUBKTNV-1">
          <mxGeometry width="50" height="50" relative="1" as="geometry">
            <mxPoint x="1080" y="360" as="sourcePoint" />
            <mxPoint x="1080" y="-90" as="targetPoint" />
          </mxGeometry>
        </mxCell>
        <mxCell id="Ts1Kzrsn6X3nxz6rrArr-83" value="" style="endArrow=classic;html=1;rounded=0;strokeWidth=5;" edge="1" parent="WIyWlLk6GJQsqaUBKTNV-1">
          <mxGeometry width="50" height="50" relative="1" as="geometry">
            <mxPoint x="1080" y="-67.3" as="sourcePoint" />
            <mxPoint x="1241" y="-60.00392749244729" as="targetPoint" />
          </mxGeometry>
        </mxCell>
        <mxCell id="Ts1Kzrsn6X3nxz6rrArr-84" value="" style="endArrow=none;html=1;rounded=0;entryX=1.01;entryY=0.681;entryDx=0;entryDy=0;entryPerimeter=0;strokeWidth=5;" edge="1" parent="WIyWlLk6GJQsqaUBKTNV-1">
          <mxGeometry width="50" height="50" relative="1" as="geometry">
            <mxPoint x="640" y="-90" as="sourcePoint" />
            <mxPoint x="1083.1999999999998" y="-90.00000000000024" as="targetPoint" />
          </mxGeometry>
        </mxCell>
        <mxCell id="Ts1Kzrsn6X3nxz6rrArr-85" value="" style="endArrow=none;html=1;rounded=0;strokeWidth=5;" edge="1" parent="WIyWlLk6GJQsqaUBKTNV-1">
          <mxGeometry width="50" height="50" relative="1" as="geometry">
            <mxPoint x="640" y="-90" as="sourcePoint" />
            <mxPoint x="640" y="-200" as="targetPoint" />
          </mxGeometry>
        </mxCell>
        <mxCell id="Ts1Kzrsn6X3nxz6rrArr-86" value="" style="endArrow=classic;html=1;rounded=0;strokeWidth=5;" edge="1" parent="WIyWlLk6GJQsqaUBKTNV-1">
          <mxGeometry width="50" height="50" relative="1" as="geometry">
            <mxPoint x="640" y="-191" as="sourcePoint" />
            <mxPoint x="740" y="-191" as="targetPoint" />
            <Array as="points">
              <mxPoint x="679.04" y="-194.16" />
            </Array>
          </mxGeometry>
        </mxCell>
      </root>
    </mxGraphModel>
  </diagram>
</mxfile>
